M48
; DRILL file {KiCad (5.1.10)-1} date 07/30/21 18:32:26
; FORMAT={-:-/ absolute / inch / decimal}
; #@! TF.CreationDate,2021-07-30T18:32:26+02:00
; #@! TF.GenerationSoftware,Kicad,Pcbnew,(5.1.10)-1
; #@! TF.FileFunction,Plated,1,2,PTH
FMAT,2
INCH
T1C0.0157
T2C0.0236
T3C0.0433
T4C0.0472
T5C0.0512
T6C0.0689
T7C0.1358
%
G90
G05
T1
X3.918Y-4.38
X3.957Y-4.365
X4.105Y-4.45
X4.11Y-3.88
X4.19Y-4.09
X4.19Y-4.165
X4.1918Y-4.3532
X4.21Y-4.73
X4.21Y-4.92
X4.21Y-4.54
X4.25Y-4.4
X4.2897Y-4.3032
X4.3Y-3.714
X4.304Y-3.61
X4.3514Y-3.7363
X4.3897Y-4.0097
X4.392Y-3.612
X4.4Y-3.85
X4.436Y-3.85
X4.46Y-3.728
X4.4718Y-4.0582
X4.472Y-3.85
X4.574Y-4.0244
X4.6Y-3.95
X4.62Y-4.0611
X4.62Y-4.2
X4.644Y-3.739
X4.76Y-4.104
X4.834Y-4.104
X4.91Y-4.104
X5.201Y-3.71
X6.361Y-3.834
X6.403Y-3.834
X6.432Y-4.286
X6.444Y-3.833
X6.514Y-4.038
X6.529Y-3.46
X6.534Y-4.636
X6.566Y-4.302
X6.57Y-4.6085
X6.598Y-4.042
X6.6052Y-4.5788
X6.638Y-4.552
X6.6497Y-4.1794
X6.67Y-4.068
X6.672Y-4.385
X6.7135Y-4.3181
X6.7135Y-4.49
X6.788Y-3.262
X6.804Y-3.46
X6.814Y-4.39
X6.8605Y-3.6195
X6.882Y-3.278
X6.9225Y-4.6175
X6.965Y-4.47
X6.972Y-4.752
X7.0612Y-4.936
X7.0773Y-3.5965
X7.2597Y-3.2932
X7.26Y-3.46
X7.29Y-4.65
X7.3215Y-3.8185
X7.4274Y-3.5109
X7.4329Y-3.3371
X7.49Y-3.55
X7.49Y-4.78
X7.55Y-3.47
X7.5707Y-3.8287
X7.684Y-3.966
X7.71Y-4.392
X7.788Y-4.392
X7.92Y-4.01
X7.92Y-4.79
X7.9397Y-4.6032
T2
X7.0397Y-3.2932
X7.0397Y-5.0532
X7.0897Y-3.2432
X7.0897Y-5.1032
X7.1397Y-3.2932
X7.1397Y-5.0532
T3
X3.81Y-3.8
X3.81Y-3.9
X3.81Y-4.0
X3.81Y-4.1
X3.81Y-4.2
X3.81Y-4.3
T4
X6.8018Y-4.2488
X6.8018Y-4.7488
T5
X4.48Y-3.536
X4.48Y-3.636
X7.9Y-3.82
X7.9Y-3.92
X7.9Y-4.41
X7.9Y-4.51
T6
X7.09Y-3.95
X7.09Y-4.3181
X7.2278Y-3.95
X7.2278Y-4.3181
X7.3656Y-3.95
X7.3656Y-4.3181
X7.5034Y-3.95
X7.5034Y-4.3181
T7
X5.7617Y-3.5736
X5.7617Y-4.7488
T0
M30
